<svg width="3772" height="3756" viewBox="0 0 3772 3756" fill="none" xmlns="http://www.w3.org/2000/svg">
<path d="M494.163 1684.31C462.253 1305.84 1158.34 640.267 1849.77 1303.91C1866.47 1319.91 1879.25 1337.19 1891.21 1356.97C1907.43 1383.75 1929.44 1444.89 1932.73 1482.72C1932.73 1482.72 1914.87 1040.41 1709.21 897.12C1709.21 897.12 1264.8 563.72 836.765 834.32C699.296 921.227 582.989 1033.73 538.504 1204.35C515.036 1294.35 494.163 1684.31 494.163 1684.31" fill="#F7AAD7"/>
<path d="M926.751 2451.51C888.453 2412.17 594.704 2211.23 503.715 1764.11C473.636 1616.29 512.988 1462.81 609.508 1346.91C642.887 1306.83 681.677 1264.19 724.809 1223.48C724.809 1223.48 531.195 1890.09 1113.9 2330.68L926.751 2451.51" fill="#F25DB0"/>
<path d="M496.68 1640.35C497.516 1626.32 498.545 1609.49 499.748 1590.69C496.624 1607.28 494.583 1623.63 493.667 1639.6C494.657 1639.85 495.661 1640.11 496.68 1640.35" fill="#F685C6"/>
<path d="M786.495 868.04L717.607 922.547C707.149 931.787 696.972 941.28 687.108 951.08C660.652 977.827 621.584 1022.17 588.875 1078.89C567.564 1116.95 550.444 1158.55 538.503 1204.35C537.229 1209.23 535.963 1215 534.707 1221.55C534.588 1222.2 534.456 1222.84 534.341 1223.48C533.827 1226.39 533.311 1229.28 532.793 1232.16C518.933 1313.53 506.571 1483.88 499.748 1590.69C518.351 1491.84 575.265 1383.83 660.481 1288.73C599.16 1131.83 786.496 868.04 786.495 868.04" fill="#F685C6"/>
<path d="M724.809 1223.48C724.809 1223.48 517.491 1387.32 493.105 1663.28C493.105 1663.28 497.199 1770.04 527.469 1860.73C527.469 1860.73 552.067 1497.76 700.121 1364.92L724.809 1223.48" fill="#EF2D93"/>
<path d="M769.436 1888.72C769.436 1888.72 762.003 1967.81 786.495 2061.6C810.985 2155.39 840.92 2324.52 836.464 2370.93L862.667 2395.27C862.667 2395.27 869.259 2264.59 836.716 2121.87L820.303 1996.36C820.303 1996.36 775.497 1904.17 769.436 1888.72" fill="#EF2D93"/>
<path d="M1665.21 868.04C1665.21 868.04 1758.89 1092.72 1767.76 1229.36C1767.76 1229.36 1824.87 1273.67 1840.99 1293.28C1840.99 1293.28 1830.03 1062.21 1709.21 897.12L1665.21 868.04" fill="#FCD6EC"/>
<path d="M2479 3406.09C2306.35 3406.09 2166.39 3375.68 2166.39 3338.16C2166.39 3300.64 2306.35 3270.23 2479 3270.23C2651.65 3270.23 2791.63 3300.64 2791.63 3338.16C2791.63 3375.68 2651.65 3406.09 2479 3406.09Z" fill="#E4D9EF"/>
<path d="M3270.15 3492.97C3097.49 3492.97 2957.52 3462.27 2957.52 3424.4C2957.52 3386.52 3097.49 3355.81 3270.15 3355.81C3442.8 3355.81 3582.76 3386.52 3582.76 3424.4C3582.76 3462.27 3442.8 3492.97 3270.15 3492.97Z" fill="#E4D9EF"/>
<path d="M1300.53 2491.56C1300.53 2491.56 2026.63 3147.28 2478.84 3114.39C2478.84 3114.39 2370.83 3308.37 2157.51 3284.63C2157.51 3284.63 1783.23 3211.37 1113.9 2609.41L1300.53 2491.56" fill="#F25DB0"/>
<path d="M2157.51 3284.63C2157.51 3284.63 2568.61 3449.07 2801.56 3199.67C2926.63 3065.76 2970.71 2920.99 3002.63 2710.16C3004.17 2700.01 3003.53 2690.76 3004.05 2680.59C3005.61 2649.51 3012.25 2607.55 3049.24 2599.8C2953.89 2599.92 2858.47 2599.45 2763.08 2599.45C2735.72 2599.45 2708.35 2599.45 2680.99 2599.45C2671.37 2599.45 2657.09 2625.92 2653.56 2632.15C2628.07 2677.03 2626.32 2735.61 2614.32 2785.09C2578.93 2930.89 2524.24 3080.52 2416.88 3189.35C2347.8 3259.33 2256.47 3298.21 2157.51 3284.63Z" fill="#F7AAD7"/>
<path d="M3045.73 2600.28C3058.89 2595.81 3073.24 2601.55 3080.15 2613.6C3085.27 2622.53 3091.2 2636 3096.19 2655.64C3116.37 2735.17 3197.84 2965.12 3237.33 3037.96C3294.56 3143.52 3322.11 3196.37 3447.56 3180.31C3447.56 3180.31 3394.01 3410.24 3164.03 3424.4C3164.03 3424.4 2917.37 3371.99 2923.89 3015.48C2923.89 3015.48 2982.45 2899.09 3002.6 2704.95C3002.6 2704.95 2997.96 2616.51 3045.73 2600.28" fill="#F25DB0"/>
<path d="M3164.03 3424.4C3164.03 3424.4 3428.91 3429.47 3471.48 3070.85L3771.76 3175C3763.31 3198.83 3751.79 3222.01 3738.79 3243.65C3698.09 3311.39 3626.08 3362.8 3552.57 3390.29C3466.59 3422.47 3372.29 3429.85 3281.23 3429.45C3242.11 3429.28 3203.01 3427.43 3164.03 3424.4" fill="#F7AAD7"/>
<path d="M2350.13 3244.65C2350.13 3244.65 2257.12 3308.31 2157.51 3284.63C2157.51 3284.63 2568.61 3449.07 2801.56 3199.67C2877.61 3118.24 2880.01 3101.33 2880.01 3098.31C2879.53 3096.95 2657.05 3250.16 2350.13 3244.65Z" fill="#F25DB0"/>
<path d="M2478.84 3114.39C2484.39 3113.99 2353.27 3321.31 2157.51 3284.63L2085.73 3262.75C2085.73 3262.75 2353.6 3230.79 2442.89 3115.59C2442.89 3115.59 2448.64 3116.6 2478.84 3114.39Z" fill="#EF2D93"/>
<path d="M2159.07 3284.91C2248.85 3322.32 2598.99 3416.53 2801.56 3199.67C2806.95 3193.89 2812.19 3188.11 2817.28 3182.29C2543.51 3367.24 2274.05 3292.01 2159.07 3284.91Z" fill="#EF2D93"/>
<path d="M2645.87 2647.69C2645.87 2647.69 2829 2604.92 3013.33 2632.4C3013.33 2632.4 3030.61 2592.13 3066.61 2601.31C3066.61 2601.31 2686.79 2596.97 2680.99 2599.45C2675.19 2601.93 2665.59 2608 2645.87 2647.69" fill="#F25DB0"/>
<path d="M3096.19 2655.64C3091.2 2636 3085.27 2622.53 3080.15 2613.6C3073.24 2601.55 3058.89 2595.81 3045.73 2600.28C2997.96 2616.51 3002.6 2704.95 3002.6 2704.95C2982.45 2899.09 2923.89 3015.48 2923.89 3015.48C2923.37 3044.05 2924.48 3070.65 2926.95 3095.44C2950.99 3039.29 3028.17 2800.21 3132.57 2772.73C3116.24 2724.67 3102.87 2681.93 3096.19 2655.64" fill="#EF2D93"/>
<path d="M3338.41 3355.79C3262.53 3419.51 3181.03 3424.08 3166.35 3424.39C3166.48 3424.45 3166.63 3424.52 3166.76 3424.6C3204.84 3427.51 3243.03 3429.29 3281.21 3429.45C3372.29 3429.85 3466.59 3422.47 3552.57 3390.29C3578.75 3380.51 3604.73 3367.67 3629.17 3352.16C3534.37 3376.08 3395.96 3362.93 3338.41 3355.79Z" fill="#F685C6"/>
<path d="M3592.28 3373C3426.03 3424.4 3306.16 3410.39 3243.95 3409.28C3205.23 3420.23 3164.03 3424.4 3164.03 3424.4C3203.01 3427.43 3242.11 3429.28 3281.21 3429.45C3372.29 3429.85 3466.59 3422.47 3552.57 3390.29C3565.92 3385.31 3579.21 3379.52 3592.28 3373" fill="#EF2D93"/>
<path d="M1620.24 2747.31C1620.24 2747.31 1631.93 2918.28 1653.48 2970.39C1663.33 2994.23 1671.76 3045.39 1671.76 3045.39L1713.03 3071.87C1713.03 3071.87 1641.4 2866.36 1668.36 2778.76L1620.24 2747.31Z" fill="#EF2D93"/>
<path d="M3471.48 3070.85L3771.76 3175L3753.04 3218.05C3753.04 3218.05 3716.95 3170.67 3471.48 3081.33V3070.85" fill="#FCD6EC"/>
<path d="M1078.92 3060.51L1164.29 3089.33C1164.29 3089.33 1158.66 2875.81 1150.67 2821.08C1150.67 2821.08 1144 2775.57 1139.65 2753.19L1082.87 2394.17C1082.87 2394.17 1075.22 2562.71 1074.3 2570.39C1073.38 2578.08 1054.82 2650 1054 2653.37L1049.54 2704.93C1049.54 2704.93 1030.11 2874.44 1053.19 2926.37C1053.19 2926.37 1068.53 2989.39 1053.19 3038.08L1078.92 3060.51Z" fill="#2F2A6B"/>
<path d="M2102.64 3581.83C2102.64 3677.85 1769.09 3755.69 1357.63 3755.69C946.175 3755.69 612.623 3677.85 612.623 3581.83C612.623 3485.8 946.175 3407.96 1357.63 3407.96C1769.09 3407.96 2102.64 3485.8 2102.64 3581.83" fill="#CFBCE3"/>
<path d="M1675.53 3348.28C1675.53 3348.28 1572.73 3348.99 1580.07 3372.24C1580.07 3372.24 1580.91 3376.47 1600.12 3387.47C1600.12 3387.47 1631.21 3405.75 1674.76 3375.8C1674.76 3375.8 1700.73 3360.01 1704.23 3352.45C1704.23 3352.45 1706.32 3346.93 1675.53 3348.28" fill="#2F2A6B"/>
<path d="M1017.85 3393.77C1017.85 3393.77 1109.56 3383.85 1105.41 3405.33C1105.41 3405.33 1105.09 3409.19 1089.1 3420.96C1089.1 3420.96 1063.26 3440.44 1021.37 3418.23C1021.37 3418.23 996.596 3406.81 992.705 3400.44C992.705 3400.44 990.279 3395.73 1017.85 3393.77" fill="#2F2A6B"/>
<path d="M1066.45 2657.76C1066.45 2657.76 1093.14 2875.35 1088.67 3148.93L1096.13 3436.45H1034.59H1003.51C1003.51 3436.45 945.608 3199.6 925.556 3040.43C919.329 2991.01 944.111 2769.27 955.384 2724.07C966.656 2678.87 1066.45 2657.76 1066.45 2657.76" fill="#FBD4EC"/>
<path d="M1661.61 3116.25C1661.61 3116.25 1686.79 3291.29 1703 3454.01C1703 3454.01 1634.23 3476.57 1620.67 3467.53C1607.11 3458.49 1588.24 3383.72 1519.33 3144.08C1519.33 3144.08 1532.67 3143.63 1553.41 3142.87C1569.65 3142.25 1589.99 3143.24 1611.16 3137.69C1627.84 3133.33 1645.65 3125.87 1661.61 3116.25" fill="#FBD4EC"/>
<path d="M1519.33 3144.08C1519.33 3144.08 1570.91 3142.07 1576.68 3142.39C1576.68 3142.39 1647.72 3468.23 1653.01 3467.16C1658.29 3466.11 1616.73 3479.33 1613.23 3457.09C1613.23 3457.09 1577.61 3364.92 1564.25 3301.81L1519.33 3144.08" fill="#F25DB0"/>
<path d="M1034.59 3436.45C1034.59 3436.45 977.764 3149.72 976.549 3036.73C976.549 3036.73 959.04 3031.97 925.261 3037.71C925.261 3037.71 941.62 3181.76 1003.51 3436.45H1034.59Z" fill="#F25DB0"/>
<path d="M992.706 3396.33C992.706 3396.33 1065.71 3451.12 1105.41 3400.8C1105.41 3400.8 1117.56 3467.07 1117.56 3476.83C1117.56 3486.57 1124.07 3481.53 1130.27 3536.96C1132.2 3554.15 1161.37 3620.41 1151.78 3645.01C1138.67 3678.64 1029.5 3726.84 995.334 3634.04C989.099 3617.11 995.059 3598.21 996.144 3580.37C997.564 3557.03 999.166 3515.77 994.89 3490.64C988.667 3454.07 995.867 3408.65 992.706 3396.33Z" fill="#EF2D93"/>
<path d="M1039.33 3536.52C1039.33 3539.21 1037.54 3541.4 1035.33 3541.4C1033.12 3541.4 1031.33 3539.21 1031.33 3536.52C1031.33 3533.83 1033.12 3531.64 1035.33 3531.64C1037.54 3531.64 1039.33 3533.83 1039.33 3536.52Z" fill="#2F2A6B"/>
<path d="M1041.33 3557.11C1041.33 3559.8 1039.54 3561.99 1037.33 3561.99C1035.12 3561.99 1033.33 3559.8 1033.33 3557.11C1033.33 3554.41 1035.12 3552.23 1037.33 3552.23C1039.54 3552.23 1041.33 3554.41 1041.33 3557.11Z" fill="#2F2A6B"/>
<path d="M1045.33 3576.61C1045.33 3579.31 1043.54 3581.49 1041.33 3581.49C1039.12 3581.49 1037.33 3579.31 1037.33 3576.61C1037.33 3573.92 1039.12 3571.73 1041.33 3571.73C1043.54 3571.73 1045.33 3573.92 1045.33 3576.61Z" fill="#2F2A6B"/>
<path d="M1049.33 3597.95C1049.33 3600.64 1047.54 3602.83 1045.33 3602.83C1043.12 3602.83 1041.33 3600.64 1041.33 3597.95C1041.33 3595.25 1043.12 3593.07 1045.33 3593.07C1047.54 3593.07 1049.33 3595.25 1049.33 3597.95Z" fill="#2F2A6B"/>
<path d="M1090.44 3530.43C1090.44 3533.12 1088.65 3535.31 1086.44 3535.31C1084.24 3535.31 1082.44 3533.12 1082.44 3530.43C1082.44 3527.73 1084.24 3525.55 1086.44 3525.55C1088.65 3525.55 1090.44 3527.73 1090.44 3530.43Z" fill="#2F2A6B"/>
<path d="M1092.44 3551.01C1092.44 3553.71 1090.65 3555.89 1088.44 3555.89C1086.24 3555.89 1084.44 3553.71 1084.44 3551.01C1084.44 3548.32 1086.24 3546.13 1088.44 3546.13C1090.65 3546.13 1092.44 3548.32 1092.44 3551.01Z" fill="#2F2A6B"/>
<path d="M1096.44 3570.52C1096.44 3573.21 1094.65 3575.39 1092.44 3575.39C1090.24 3575.39 1088.44 3573.21 1088.44 3570.52C1088.44 3567.83 1090.24 3565.64 1092.44 3565.64C1094.65 3565.64 1096.44 3567.83 1096.44 3570.52Z" fill="#2F2A6B"/>
<path d="M1100.44 3591.85C1100.44 3594.55 1098.65 3596.72 1096.44 3596.72C1094.24 3596.72 1092.44 3594.55 1092.44 3591.85C1092.44 3589.16 1094.24 3586.97 1096.44 3586.97C1098.65 3586.97 1100.44 3589.16 1100.44 3591.85Z" fill="#2F2A6B"/>
<path d="M1033.95 3531.95C1033.95 3531.95 1057.56 3521.08 1086.44 3525.55C1086.44 3525.55 1088.63 3532.56 1087.43 3535.15L1086.44 3535.31C1086.44 3535.31 1065.65 3530 1036.49 3541.19C1036.49 3541.19 1034.57 3537.73 1033.95 3531.95" fill="#2F2A6B"/>
<path d="M1036.38 3552.33C1036.38 3552.33 1059.99 3541.47 1088.88 3545.95C1088.88 3545.95 1091.07 3552.95 1089.86 3555.53L1088.88 3555.69C1088.88 3555.69 1068.08 3550.4 1038.92 3561.57C1038.92 3561.57 1037 3558.13 1036.38 3552.33" fill="#2F2A6B"/>
<path d="M1039.61 3572.25C1039.61 3572.25 1063.21 3561.39 1092.1 3565.85C1092.1 3565.85 1094.29 3572.85 1093.08 3575.45L1092.1 3575.6C1092.1 3575.6 1071.3 3570.31 1042.15 3581.49C1042.15 3581.49 1040.22 3578.04 1039.61 3572.25" fill="#2F2A6B"/>
<path d="M1043.99 3593.59C1043.99 3593.59 1067.6 3582.72 1096.49 3587.19C1096.49 3587.19 1098.68 3594.19 1097.47 3596.79L1096.49 3596.93C1096.49 3596.93 1075.69 3591.64 1046.53 3602.83C1046.53 3602.83 1044.61 3599.37 1043.99 3593.59Z" fill="#2F2A6B"/>
<path d="M1704.23 3352.45C1704.23 3352.45 1631.04 3421.63 1580.07 3370.55C1580.07 3370.55 1575.87 3445.35 1577.23 3456.15C1578.59 3466.93 1570.67 3462.11 1571.53 3524.21C1571.8 3543.47 1546.68 3614.15 1558.75 3641.08C1579.69 3687.91 1708.08 3726.15 1732.96 3619.41C1737.51 3599.95 1729.79 3576.25 1726.11 3556.63C1721.27 3530.95 1713.75 3485.45 1714.97 3457.13C1716.76 3415.92 1702.45 3366.47 1704.23 3352.45Z" fill="#EF2D93"/>
<path d="M1672.16 3513.12C1672.53 3516.09 1674.83 3518.31 1677.27 3518.05C1679.72 3517.79 1681.4 3515.16 1681.03 3512.19C1680.64 3509.2 1678.36 3506.99 1675.91 3507.25C1673.47 3507.51 1671.79 3510.13 1672.16 3513.12Z" fill="#2F2A6B"/>
<path d="M1672.83 3536.15C1673.2 3539.12 1675.48 3541.33 1677.93 3541.08C1680.37 3540.81 1682.05 3538.19 1681.68 3535.21C1681.31 3532.23 1679.01 3530.01 1676.57 3530.28C1674.12 3530.53 1672.44 3533.16 1672.83 3536.15Z" fill="#2F2A6B"/>
<path d="M1671.11 3558.2C1671.49 3561.19 1673.77 3563.4 1676.23 3563.13C1678.67 3562.88 1680.35 3560.25 1679.97 3557.27C1679.6 3554.29 1677.31 3552.08 1674.87 3552.33C1672.41 3552.6 1670.73 3555.23 1671.11 3558.2Z" fill="#2F2A6B"/>
<path d="M1669.67 3582.29C1670.04 3585.28 1672.32 3587.48 1674.77 3587.23C1677.21 3586.97 1678.89 3584.35 1678.52 3581.36C1678.15 3578.37 1675.85 3576.17 1673.41 3576.43C1670.96 3576.68 1669.28 3579.31 1669.67 3582.29Z" fill="#2F2A6B"/>
<path d="M1614.72 3512.33C1615.09 3515.31 1617.39 3517.52 1619.83 3517.25C1622.28 3517 1623.95 3514.37 1623.57 3511.39C1623.2 3508.41 1620.92 3506.2 1618.47 3506.47C1616.03 3506.72 1614.35 3509.35 1614.72 3512.33Z" fill="#2F2A6B"/>
<path d="M1615.37 3535.36C1615.75 3538.33 1618.04 3540.55 1620.49 3540.29C1622.93 3540.03 1624.61 3537.4 1624.24 3534.43C1623.87 3531.44 1621.57 3529.23 1619.12 3529.49C1616.68 3529.75 1615 3532.37 1615.37 3535.36Z" fill="#2F2A6B"/>
<path d="M1613.67 3557.41C1614.04 3560.4 1616.33 3562.61 1618.77 3562.35C1621.23 3562.09 1622.91 3559.47 1622.53 3556.48C1622.15 3553.51 1619.87 3551.29 1617.41 3551.55C1614.97 3551.81 1613.29 3554.44 1613.67 3557.41Z" fill="#2F2A6B"/>
<path d="M1612.21 3581.51C1612.6 3584.49 1614.88 3586.69 1617.33 3586.44C1619.77 3586.17 1621.45 3583.56 1621.08 3580.57C1620.69 3577.59 1618.41 3575.39 1615.96 3575.64C1613.52 3575.89 1611.84 3578.52 1612.21 3581.51Z" fill="#2F2A6B"/>
<path d="M1677.48 3507.43C1677.48 3507.43 1649.83 3498.15 1618.47 3506.47C1618.47 3506.47 1617.03 3514.47 1618.72 3517.2L1619.83 3517.25C1619.83 3517.25 1642.12 3508.97 1675.96 3517.95C1675.96 3517.95 1677.61 3513.91 1677.48 3507.43" fill="#2F2A6B"/>
<path d="M1677.64 3530.28C1677.64 3530.28 1649.99 3521 1618.63 3529.32C1618.63 3529.32 1617.17 3537.33 1618.87 3540.07L1619.99 3540.12C1619.99 3540.12 1642.27 3531.83 1676.11 3540.81C1676.11 3540.81 1677.76 3536.77 1677.64 3530.28" fill="#2F2A6B"/>
<path d="M1676.84 3552.71C1676.84 3552.71 1649.2 3543.43 1617.83 3551.75C1617.83 3551.75 1616.39 3559.76 1618.08 3562.48L1619.19 3562.55C1619.19 3562.55 1641.48 3554.25 1675.32 3563.23C1675.32 3563.23 1676.97 3559.19 1676.84 3552.71" fill="#2F2A6B"/>
<path d="M1674.96 3576.84C1674.96 3576.84 1647.31 3567.56 1615.95 3575.88C1615.95 3575.88 1614.51 3583.89 1616.2 3586.61L1617.31 3586.68C1617.31 3586.68 1639.6 3578.39 1673.44 3587.36C1673.44 3587.36 1675.08 3583.32 1674.96 3576.84" fill="#2F2A6B"/>
<path d="M1045.56 351.6C1029.37 368.88 1024.66 437.814 964.099 543.014C903.539 648.214 784.169 789.027 877.391 839.88C970.611 890.734 1355.88 968.12 1521.72 854.84C1521.72 854.84 1645.32 779.64 1557.12 654.68C1468.92 529.707 1385.93 451.254 1398.61 338.56C1398.61 338.56 1256.33 126.56 1045.56 351.6" fill="#4F389B"/>
<path d="M1036.67 389.334C1035.46 397.334 1065.42 517.334 1048.37 573.334C1031.33 629.334 996.71 700.92 997.788 700.614C998.866 700.294 1295.11 726.667 1384.55 717.334C1474 708 1373.56 580.694 1395.96 419.507C1409.84 319.707 1036.67 389.334 1036.67 389.334Z" fill="#3F2D8C"/>
<path d="M1579.35 1015.08C1579.35 1015.08 1557.41 1318.29 1522.89 1434.27C1522.89 1434.27 1544.17 1580.53 1459.11 1842.05L1458.81 1844.01C1450.24 1902.13 1431.81 1958.41 1403.83 2010.08C1382.16 2050.07 1357.76 2087.23 1343.93 2082.35C1315.12 2072.17 1286.57 2072.17 1272.03 2033.2C1257.49 1994.21 1300.72 1964.52 1312.07 1938.27C1328.68 1899.87 1343.37 1871.05 1289.71 1919.92C1262.25 1944.89 1265.97 1887.43 1289.71 1870.48C1313.43 1853.53 1373.04 1828.71 1381.51 1826.99C1389.99 1825.25 1424.47 1653.53 1438.23 1438.2C1444.45 1340.84 1459.11 1048.45 1465.56 1037.37C1472 1026.29 1532.2 1031.08 1579.35 1015.08" fill="#FBD4EC"/>
<path d="M1305.27 92.4538C1305.27 143.027 1265.39 184.014 1216.2 184.014C1167.01 184.014 1127.13 143.027 1127.13 92.4538C1127.13 41.8938 1167.01 0.89361 1216.2 0.89361C1265.39 0.89361 1305.27 41.8938 1305.27 92.4538Z" fill="#4F389B"/>
<path d="M1162.81 650.094C1135.02 675.467 960.812 695.787 917.761 736.56C917.761 736.56 832.569 789.414 814.491 1070.39C814.491 1070.39 905.716 1070.48 977.877 1088.25C977.707 1076.73 968.092 957.787 964.099 943.147C960.104 928.52 983.132 1136.09 983.605 1141.01C984.08 1145.92 984.439 1151.63 984.667 1160.67C984.895 1169.71 987.472 1180.73 988.704 1193.04C989.935 1205.35 998.708 1229.13 999.457 1255.13C1000.21 1281.13 974.673 1368.69 975.184 1377.17C975.695 1385.64 982.869 1402.25 1000.67 1407.8C1050 1423.15 1267.23 1442.99 1316.37 1444.83C1365.53 1446.67 1394.24 1448.19 1424.8 1438.11C1455.36 1428.01 1445.16 1221.31 1471.92 1197.52C1498.59 1173.81 1516.6 1096.83 1506.41 1064.17C1496.24 1031.59 1472.85 968.614 1469.92 954.16C1469.92 954.16 1480.19 1018.75 1496.24 1031.59C1496.24 1031.59 1577.95 1028.73 1597.49 1006.79C1617.03 984.84 1572.71 743.094 1481.6 701.467C1481.6 701.467 1418.08 673.214 1393.49 670.947C1368.92 668.694 1282.73 650.094 1269.89 650.094H1162.81" fill="#B9E8FA"/>
<path d="M1000.67 1407.8C1000.67 1407.8 1429.56 1477.81 1438.73 1418.91L1436.09 1501.47C1436.09 1501.47 1337.11 1537.37 985.673 1469.67L974.084 1465.09C974.084 1465.09 988.36 1451.99 1000.67 1407.8Z" fill="#2F2A6B"/>
<path d="M974.084 1465.09C974.084 1465.09 906.085 1514.08 889.299 1600.13C884.424 1625.12 860.684 1645.71 849.539 1668.41C834.839 1698.36 826.1 1731.08 821.507 1764.04C800.903 1911.79 827.455 2077.51 854.297 2222.93C896.792 2453.15 784.557 3013.33 784.557 3013.33C784.557 3013.33 760.587 3053.65 872.66 3042.53C939.635 3035.88 962.905 3034.71 976.548 3036.73C985.736 3038.09 990.559 3040.91 1001.42 3044.48C1028.42 3053.33 1016.37 3136.6 1016.37 3152.93C1016.37 3169.27 1080.94 3042.29 1053.19 2926.37C1029.37 2826.91 1078.2 2708.93 1082.05 2612.93C1083.1 2586.69 1082.87 2394.17 1082.87 2394.17C1082.87 2394.17 1128.85 2713.72 1142.67 2766.35C1156.49 2818.99 1169.5 3098.35 1162.81 3152.93C1162.81 3152.93 1189.61 3139.13 1244.24 3136.12C1264.89 3134.97 1315.09 3137.47 1372.59 3139.96C1467.11 3144.05 1581.35 3148.15 1616.6 3136.12C1673.28 3116.77 1681.99 3099.97 1677.32 3097.53C1672.65 3095.09 1678.16 3031.41 1653.48 2970.39C1628.8 2909.37 1555.52 2068.84 1534.99 2009.93C1514.47 1951.03 1518.36 1870.8 1491.09 1792.99C1463.83 1715.19 1455.63 1702.79 1456.35 1689.13C1457.05 1675.48 1448.79 1528.51 1436.09 1501.47C1436.09 1501.47 1234.62 1525.95 974.084 1465.09" fill="#4F389B"/>
<path d="M1269.89 650.094H1162.81V543.014H1269.89V650.094Z" fill="#FBD4EC"/>
<path d="M964.099 943.147C964.099 943.147 978.551 1094.49 979.267 1101.08C979.88 1106.75 982.332 1133.19 983.011 1140.52C983.127 1141.77 983.644 1142.95 984.496 1143.88C989.315 1149.16 1009.05 1158.76 1022.74 1167.31C1066.45 1194.56 1125.85 1180.97 1158.76 1169.67C1177.95 1163.08 1199.83 1155.91 1213.85 1141.83C1218.92 1136.73 1212.23 1128.73 1206.41 1132.95C1204.53 1134.31 1202.57 1135.69 1200.52 1137.08C1182.15 1149.52 1086.15 1160.19 1069.56 1153.08C1052.96 1145.97 995.481 1143 996.667 1092.04C997.852 1041.08 967.084 943.6 964.099 943.147" fill="#6CC9F2"/>
<path d="M1275.84 1129.15L1282.89 1166.71C1282.89 1166.71 1355.73 1202.04 1406.75 1198.41C1423.64 1197.21 1434.37 1199.41 1442.23 1201.61C1454.69 1205.11 1459.91 1208.6 1470.97 1198.48C1477.25 1192.73 1494.24 1167.6 1496.44 1159.37L1503.87 1125.55C1503.87 1125.55 1521.91 1076.11 1490.4 1020.08C1490.4 1020.08 1462.44 880.787 1460.67 868.934C1460.67 868.934 1467.19 997.814 1476.67 1013.23C1486.15 1028.63 1495.04 1105.67 1489.71 1125.23C1484.37 1144.79 1471.33 1163.15 1439.33 1167.31C1409.75 1171.13 1310.28 1195.73 1278.56 1128.25C1277.84 1126.73 1275.53 1127.48 1275.84 1129.15" fill="#6CC9F2"/>
<path d="M1082.87 2400.17H1082.77C1079.45 2400.12 1076.81 2397.39 1076.87 2394.08C1081.77 2103.48 1100.46 1861.93 1132.4 1676.15C1158.85 1522.36 1186.17 1457.19 1193.91 1440.88C1195.33 1437.88 1198.92 1436.61 1201.91 1438.03C1204.9 1439.45 1206.17 1443.03 1204.75 1446.03C1197.17 1461.99 1170.41 1525.89 1144.23 1678.19C1112.39 1863.36 1093.76 2104.29 1088.87 2394.28C1088.81 2397.56 1086.14 2400.17 1082.87 2400.17Z" fill="#2F2A6B"/>
<path d="M1141.27 1549.31C1141.27 1559.89 1132.72 1568.48 1122.18 1568.48C1111.64 1568.48 1103.09 1559.89 1103.09 1549.31C1103.09 1538.72 1111.64 1530.15 1122.18 1530.15C1132.72 1530.15 1141.27 1538.72 1141.27 1549.31Z" fill="#B9E8FA"/>
<path d="M1224.26 1568.48C1224.26 1579.05 1215.72 1587.64 1205.17 1587.64C1194.63 1587.64 1186.08 1579.05 1186.08 1568.48C1186.08 1557.89 1194.63 1549.31 1205.17 1549.31C1215.72 1549.31 1224.26 1557.89 1224.26 1568.48Z" fill="#B9E8FA"/>
<path d="M1116.34 1656.93C1116.34 1667.52 1107.79 1676.09 1097.25 1676.09C1086.71 1676.09 1078.16 1667.52 1078.16 1656.93C1078.16 1646.35 1086.71 1637.76 1097.25 1637.76C1107.79 1637.76 1116.34 1646.35 1116.34 1656.93Z" fill="#B9E8FA"/>
<path d="M1203.57 1676.09C1203.57 1686.68 1195.02 1695.27 1184.48 1695.27C1173.93 1695.27 1165.39 1686.68 1165.39 1676.09C1165.39 1665.51 1173.93 1656.93 1184.48 1656.93C1195.02 1656.93 1203.57 1665.51 1203.57 1676.09Z" fill="#B9E8FA"/>
<path d="M1091.84 1778.31C1091.84 1788.89 1083.29 1797.47 1072.75 1797.47C1062.21 1797.47 1053.66 1788.89 1053.66 1778.31C1053.66 1767.72 1062.21 1759.15 1072.75 1759.15C1083.29 1759.15 1091.84 1767.72 1091.84 1778.31Z" fill="#B9E8FA"/>
<path d="M1191.36 1797.47C1191.36 1808.05 1182.81 1816.64 1172.27 1816.64C1161.72 1816.64 1153.18 1808.05 1153.18 1797.47C1153.18 1786.88 1161.72 1778.31 1172.27 1778.31C1182.81 1778.31 1191.36 1786.88 1191.36 1797.47Z" fill="#B9E8FA"/>
<path d="M1072.42 1909.23C1072.42 1919.81 1063.87 1928.4 1053.33 1928.4C1042.79 1928.4 1034.24 1919.81 1034.24 1909.23C1034.24 1898.65 1042.79 1890.07 1053.33 1890.07C1063.87 1890.07 1072.42 1898.65 1072.42 1909.23Z" fill="#B9E8FA"/>
<path d="M1176.09 1914.77C1176.09 1925.35 1167.54 1933.93 1157 1933.93C1146.45 1933.93 1137.91 1925.35 1137.91 1914.77C1137.91 1904.19 1146.45 1895.6 1157 1895.6C1167.54 1895.6 1176.09 1904.19 1176.09 1914.77Z" fill="#B9E8FA"/>
<path d="M1168.45 1462.61C1168.45 1473.2 1159.91 1481.77 1149.36 1481.77C1138.82 1481.77 1130.27 1473.2 1130.27 1462.61C1130.27 1452.03 1138.82 1443.45 1149.36 1443.45C1159.91 1443.45 1168.45 1452.03 1168.45 1462.61Z" fill="#B9E8FA"/>
<path d="M1249.49 1468.12C1249.49 1478.71 1240.95 1487.29 1230.4 1487.29C1219.86 1487.29 1211.31 1478.71 1211.31 1468.12C1211.31 1457.55 1219.86 1448.96 1230.4 1448.96C1240.95 1448.96 1249.49 1457.55 1249.49 1468.12Z" fill="#B9E8FA"/>
<path d="M1269.89 570.84C1269.89 570.84 1247.09 587.08 1223.81 590.08C1223.81 590.08 1183.77 586.574 1162.81 564.64V626.267L1269.08 593.08L1269.89 570.84" fill="#F25DB0"/>
<path d="M1162.81 650.094C1162.81 650.094 1143.3 662.414 1108.86 671.4C1108.86 671.4 1130.89 733.814 1185.11 780.04C1239.33 826.267 1240.23 882.96 1240.23 882.96C1240.23 882.96 1229.56 829.814 1244.67 796.04C1259.77 762.267 1322.08 718.84 1315.37 657.44C1315.37 657.44 1277.35 650.094 1269.89 650.094H1162.81Z" fill="#FBD4EC"/>
<path d="M1078.92 679.254C1078.92 679.254 1111.63 757.72 1169.56 796.48C1169.56 796.48 1225.56 835.147 1243.33 928.934C1243.33 928.934 1241.56 837.814 1263.77 800.48C1263.77 800.48 1289.56 756.934 1298 752.48C1306.44 748.04 1345.29 710.32 1347.2 663.4L1315.37 657.44C1315.37 657.44 1327.31 689.707 1276.87 751.76C1276.87 751.76 1229.56 791.227 1236.44 860.08C1236.44 860.08 1229.39 814.36 1173.47 769.427C1173.47 769.427 1130.83 728.987 1108.86 671.4L1078.92 679.254" fill="#6CC9F2"/>
<path d="M1507.09 1658.27L1506.79 1658.23C1506.07 1658.05 1505.63 1657.33 1505.8 1656.63C1523.97 1580.33 1521.59 1435.73 1521.56 1434.29C1521.55 1434.11 1521.59 1433.93 1521.65 1433.77C1551.45 1358.83 1577.31 1021.77 1577.56 1018.39C1577.61 1017.65 1578.24 1017.09 1578.99 1017.16C1579.72 1017.21 1580.28 1017.85 1580.21 1018.59C1579.96 1021.97 1554.13 1358.69 1524.23 1434.51C1524.33 1441.6 1526.27 1582.2 1508.39 1657.24C1508.24 1657.85 1507.69 1658.27 1507.09 1658.27" fill="#F25DB0"/>
<path d="M1532.25 1026.43L1496.24 1031.59L1504.17 1053.93C1512.8 1080.95 1508.24 1104.21 1508.24 1104.21L1498.29 1145.97C1498.29 1145.97 1496.39 1162.51 1489.32 1173.85C1488.69 1174.87 1481.41 1189.76 1470.97 1198.48C1466.13 1202.52 1463.27 1214.29 1461.25 1222.93C1457.03 1241.2 1454.56 1268.61 1454.56 1268.61C1451.03 1321.67 1438.73 1418.92 1438.73 1418.92L1436.09 1501.47C1441.73 1505.55 1450.12 1587.64 1450.12 1587.64L1451.19 1425.67C1495.93 1285.31 1521.11 1088.93 1530.53 1039.77C1532.89 1033.27 1577.61 1030.93 1577.61 1030.93V1018.48C1558.12 1023.59 1532.25 1026.43 1532.25 1026.43" fill="#F25DB0"/>
<path d="M910.148 1530.15C910.148 1530.15 916.676 1524.61 926.147 1515.77C923.449 1519.59 920.773 1523.6 918.153 1527.81C915.451 1528.64 912.783 1529.43 910.148 1530.15ZM972.431 1466.33C977.775 1459.51 982.64 1452.59 986.593 1445.87C979.529 1460.09 974.084 1465.09 974.084 1465.09C974.084 1465.09 973.501 1465.51 972.431 1466.33" fill="#AEC7CF"/>
<path d="M1118.87 1424.61C1073.39 1418.87 1035.31 1413.2 1015.47 1410.13L1286 1241.81L1412.28 1198.13C1413.55 1198.09 1414.79 1198.07 1415.99 1198.07C1427.73 1198.07 1435.91 1199.84 1442.23 1201.61C1446.15 1202.71 1449.36 1203.81 1452.25 1204.48C1437.96 1228.43 1402.15 1265.17 1310.75 1288.19C1310.75 1288.19 1221.75 1358.68 1118.87 1424.61Z" fill="#7BB1CC"/>
<path d="M996.291 1422.08C996.292 1422.07 996.292 1422.07 996.293 1422.07C996.295 1422.07 996.292 1422.07 996.291 1422.08Z" fill="#AEC7CF"/>
<path d="M1030.92 1477.24C1012.33 1473.63 993.373 1469.6 974.084 1465.09C974.084 1465.09 979.529 1460.09 986.593 1445.87C991.527 1437.47 995.04 1429.36 996.291 1422.08C996.292 1422.07 996.295 1422.07 996.296 1422.05L1015.47 1410.13C1035.31 1413.2 1073.39 1418.87 1118.87 1424.61C1090.09 1443.07 1060.22 1461.16 1030.92 1477.24" fill="#232453"/>
<path d="M918.153 1527.81C920.773 1523.6 923.449 1519.59 926.147 1515.77C939.121 1503.65 957.616 1485.29 972.431 1466.33C973.501 1465.51 974.084 1465.09 974.084 1465.09C993.373 1469.6 1012.33 1473.63 1030.92 1477.24C990.896 1499.23 951.919 1517.47 918.153 1527.81Z" fill="#35317E"/>
<path d="M1452.25 1204.48C1449.36 1203.81 1446.15 1202.71 1442.23 1201.61C1435.91 1199.84 1427.73 1198.07 1415.99 1198.07C1414.79 1198.07 1413.55 1198.09 1412.28 1198.13L1461.97 1180.93C1461.51 1181.57 1460.29 1191 1452.25 1204.48" fill="#4A96C7"/>
<path d="M1429.53 1189.76C1447.24 1176.21 1487.43 1145.11 1487.43 1145.11C1496.23 1135.08 1494.2 1131.6 1492.85 1128.21C1491.08 1123.75 1487.71 1121.37 1484.25 1124.13C1465.55 1139.05 1404 1178.56 1414.44 1170.88C1426.07 1162.35 1491.33 1120.04 1492.71 1112.04C1494.09 1104.04 1488.33 1100.48 1480.69 1099.97C1472.21 1099.4 1393.6 1155.72 1398.89 1149.37C1404.44 1142.71 1466 1106.27 1468.67 1101.81C1471.33 1097.37 1467.77 1091.15 1463.77 1087.15C1459.77 1083.15 1457.23 1083.6 1445.56 1087.15C1431.03 1091.59 1359.45 1143.04 1359.2 1143.23C1334.52 1157.95 1318 1156.57 1328.81 1146.56C1380.37 1098.85 1356.96 1081.67 1356.96 1081.67C1356.96 1081.67 1355.77 1082.85 1315.48 1114.27C1278.39 1143.17 1265.05 1169.43 1260.51 1181.72C1258.75 1186.49 1254.71 1189.72 1250.01 1191.67C1100.37 1253.81 948.971 1286.17 940.103 1301.47C940.103 1301.47 965.573 1113.92 963.617 1085.01C963.617 1085.01 918.445 1072.08 830.944 1070.71C830.944 1070.71 806.016 1352.71 806.016 1394.96C806.016 1394.96 809.26 1428.72 814.491 1433.97C818.069 1437.56 865.504 1535.35 1290.59 1257.37C1290.59 1257.37 1363.44 1266.76 1416.69 1229.88H1416.71C1441.23 1216.16 1478 1170.48 1478 1170.48C1490.23 1154.27 1488.96 1152.48 1485.81 1149.04C1484.88 1148.01 1445.88 1177.39 1429.53 1189.76" fill="#FBD4EC"/>
<path d="M806.016 1394.96C806.016 1394.96 807.037 1421.52 828.963 1428.64C850.889 1435.75 922.584 1425.72 944.507 1419.75C1103.09 1376.48 1287.25 1251.21 1290.21 1256.39C1291.09 1257.93 1290.59 1257.37 1290.59 1257.37C1290.59 1257.37 1055.72 1413.75 942.047 1440.15C942.047 1440.15 867.72 1465.77 828.935 1446.16C828.935 1446.16 818.551 1441.84 813.089 1431.83C813.089 1431.83 807.66 1417.59 806.016 1394.96" fill="#F25DB0"/>
<path d="M1258.33 1190.41L1258.01 1190.37C1257.29 1190.2 1256.85 1189.47 1257.04 1188.76C1257.13 1188.35 1267.56 1148.12 1304.27 1121.77L1356.13 1080.63C1356.49 1080.35 1356.97 1080.25 1357.4 1080.41C1357.59 1080.48 1361.88 1082.01 1363.85 1087.39C1366.33 1094.12 1364.05 1103.51 1357.11 1115.29C1356.43 1116.29 1341.55 1138.29 1331.19 1146.16C1329.03 1147.87 1326.85 1150.52 1327.2 1151.56C1327.36 1152.07 1328.55 1152.68 1331.37 1152.79C1347.37 1153.37 1374.49 1131.88 1383.41 1124.8C1385.03 1123.51 1386.11 1122.65 1386.71 1122.24C1394.37 1116.93 1433.23 1090.21 1445.11 1085.89C1458.08 1081.19 1460.61 1083.43 1467.41 1089.41C1473.4 1094.68 1470.85 1101.08 1468.68 1103.73L1468.37 1104C1466.69 1105.09 1464.95 1106.23 1463.16 1107.39C1473.07 1102.19 1479.92 1098.87 1480.12 1098.77C1480.31 1098.68 1480.53 1098.63 1480.75 1098.64C1486.48 1098.85 1490.49 1100.52 1492.67 1103.59C1495.33 1107.36 1494.17 1111.81 1494 1112.39C1492.03 1120.31 1426.37 1164.37 1413.19 1173.15C1412.57 1173.56 1411.75 1173.4 1411.33 1172.79C1410.92 1172.17 1411.09 1171.33 1411.71 1170.93C1449.65 1145.65 1490.49 1116.33 1491.4 1111.79L1491.44 1111.64C1491.45 1111.61 1492.52 1107.97 1490.48 1105.12C1488.84 1102.83 1485.64 1101.55 1480.97 1101.32C1478.04 1102.75 1454.36 1114.4 1431.77 1128.03C1419 1136.52 1407.83 1144.08 1402.79 1147.81C1401.73 1148.68 1400.73 1149.53 1399.77 1150.37C1399.31 1150.79 1398.63 1150.81 1398.12 1150.47C1397.61 1150.11 1397.43 1149.44 1397.65 1148.87C1397.71 1148.76 1397.83 1148.6 1398.03 1148.4L1398.01 1148.37C1406.13 1141.2 1417.81 1133.37 1429.84 1126.09C1442.25 1117.83 1456.01 1108.84 1466.73 1101.88C1467.53 1100.84 1470.76 1095.92 1465.65 1091.41C1459.23 1085.75 1457.51 1084.23 1446.01 1088.41C1434.44 1092.61 1395.84 1119.16 1388.23 1124.44C1387.69 1124.8 1386.59 1125.68 1385.07 1126.89C1374.99 1134.88 1348.19 1156.12 1331.27 1155.45C1329.87 1155.4 1325.59 1155.23 1324.65 1152.39C1323.56 1149.01 1328.55 1144.85 1329.55 1144.05C1339.59 1136.43 1354.69 1114.09 1354.85 1113.87C1362.91 1100.23 1362.85 1092.47 1361.37 1088.37C1360.25 1085.25 1358.19 1083.79 1357.15 1083.23L1305.88 1123.89C1269.91 1149.72 1259.72 1189.01 1259.63 1189.4C1259.47 1190.01 1258.93 1190.41 1258.33 1190.41" fill="#F25DB0"/>
<path d="M1429.55 1191.76C1428.92 1191.76 1428.31 1191.48 1427.91 1190.93C1427.27 1190.03 1427.48 1188.77 1428.37 1188.13C1443 1177.69 1481.83 1149.39 1485.8 1143.92C1485.93 1143.75 1486.08 1143.6 1486.27 1143.47C1486.31 1143.44 1491.55 1139.63 1492.32 1134.49C1492.68 1132.13 1492.05 1129.88 1490.41 1127.61L1484.47 1123.72C1483.53 1123.11 1483.28 1121.87 1483.88 1120.95C1484.48 1120.03 1485.72 1119.76 1486.65 1120.37L1492.91 1124.45C1493.09 1124.57 1493.27 1124.73 1493.4 1124.92C1495.85 1128.15 1496.81 1131.59 1496.28 1135.12C1495.33 1141.25 1490.09 1145.59 1488.84 1146.55C1482.81 1154.08 1436.07 1187.56 1430.71 1191.39C1430.35 1191.64 1429.95 1191.76 1429.55 1191.76" fill="#F25DB0"/>
<path d="M1312.97 1259.91C1299.41 1259.91 1290.65 1258.73 1290.4 1258.69C1289.68 1258.59 1289.17 1257.92 1289.27 1257.19C1289.37 1256.45 1290.04 1255.95 1290.77 1256.05C1291.49 1256.16 1363.27 1265.73 1415.93 1228.79C1416.44 1228.4 1471.28 1186.05 1486.23 1155.16C1486.39 1154.83 1487.59 1152.27 1484.96 1150.07C1484.39 1149.59 1484.32 1148.75 1484.79 1148.19C1485.27 1147.61 1486.11 1147.55 1486.67 1148.01C1490.16 1150.93 1489.45 1154.76 1488.6 1156.36C1473.4 1187.79 1419.79 1229.2 1417.52 1230.95C1382.33 1255.61 1338.88 1259.91 1312.97 1259.91" fill="#F25DB0"/>
<path d="M963.617 1085.01C963.617 1085.01 943.06 1080.55 934.897 1079.19L933.523 1078.91L933.528 1078.99C917.577 1076.64 868.596 1069.99 830.944 1070.71L830.224 1078.91C830.224 1078.91 917.852 1076.33 934.319 1095.15C944.223 1108.33 935.447 1210.68 915.777 1303.6C915.777 1303.6 889.111 1326.71 888.223 1338.27C888.223 1338.27 927.659 1304.93 940.103 1301.47C940.103 1301.47 967.013 1106.43 963.617 1085.01Z" fill="#F25DB0"/>
<path d="M794.377 2961.52L820.933 2804.07C810.952 2868.69 801.248 2924.03 794.377 2961.52ZM1145.98 2790.35C1143.93 2777.4 1141.58 2763.09 1139.66 2753.24C1140.78 2758.59 1141.79 2763.01 1142.67 2766.35C1144.11 2771.85 1145.55 2779.81 1146.95 2789.75C1146.63 2789.93 1146.3 2790.15 1145.98 2790.35Z" fill="#C8C0D9"/>
<path d="M1081.06 2828.59C1077.58 2772.68 1073.66 2727.87 1070.76 2698.17C1071.51 2694.19 1072.25 2690.2 1072.96 2686.25C1090.1 2676.81 1106.71 2667.33 1122.85 2657.81C1129.33 2697.73 1135.32 2732.47 1139.66 2753.24C1141.58 2763.09 1143.93 2777.4 1145.98 2790.35C1123.99 2803.89 1102.26 2816.65 1081.06 2828.59" fill="#252658"/>
<path d="M1047.19 2847.23C1049.8 2797.95 1061.56 2746.93 1070.76 2698.17C1073.66 2727.87 1077.58 2772.68 1081.06 2828.59C1069.61 2835.04 1058.31 2841.25 1047.19 2847.23Z" fill="#C39EC8"/>
<path d="M1578.67 2357.76C1577.19 2343.96 1575.72 2330.32 1574.27 2316.88L1579.35 2356.37C1579.12 2356.84 1578.89 2357.29 1578.67 2357.76Z" fill="#C8C0D9"/>
<path d="M794.377 2961.52C801.248 2924.03 810.952 2868.69 820.935 2804.07C914.859 2767.19 998.636 2727.19 1072.96 2686.25C1072.25 2690.2 1071.51 2694.19 1070.76 2698.17C1061.56 2746.93 1049.8 2797.95 1047.19 2847.23C905.489 2923.48 794.533 2961.47 794.377 2961.52ZM1146.95 2789.75C1145.55 2779.81 1144.11 2771.85 1142.67 2766.35C1141.79 2763.01 1140.78 2758.59 1139.66 2753.24C1135.32 2732.47 1129.33 2697.73 1122.85 2657.81C1442.4 2469.52 1568.51 2272.09 1568.51 2272.09L1574.27 2316.88C1575.72 2330.32 1577.19 2343.96 1578.67 2357.76C1485.51 2545.85 1308.99 2689.72 1146.95 2789.75" fill="#3C3082"/>
<path d="M1128.19 106.627C1128.19 106.627 1228.42 71.2138 1301.88 102.72C1301.88 102.72 1218.15 40.4936 1128.19 106.627Z" fill="#3F2D8C"/>
<path d="M1232.53 249.707C1213.61 240.747 1212.52 225.56 1212.52 225.56C1210.06 239.547 1199.85 246.707 1191.35 250.307C1144.45 255.747 1093.19 278.374 1041.93 331.414C1041.93 331.414 1074.28 562.974 1223.81 590.08C1223.81 590.08 1348.96 580.227 1393.49 325.254C1393.49 325.254 1325.85 257.64 1232.53 249.707Z" fill="#FBD4EC"/>
<path d="M1143.9 263.067C1143.9 263.067 1050.87 285.947 1050.92 360.92C1050.92 360.92 1070.89 501.92 1162.81 564.64C1162.81 564.64 1181.94 586.014 1223.81 590.08C1183.76 579.134 1165.96 546.6 1143.41 519.387C1134.24 508.32 1126.13 496.534 1119.62 483.747C1101.39 447.907 1087.37 404.667 1084.64 364.414C1081.83 323.107 1096.52 283.867 1136.25 266.147C1138.76 265.014 1141.31 264 1143.9 263.067" fill="#F799CF"/>
<path d="M1380.45 385.36C1380.45 385.36 1492.04 164.494 1301.88 102.72C1257.87 88.427 1201.55 88.5736 1156.3 98.6136C1067.58 118.294 954.069 193.867 1056.13 393.347L1053.03 379.854C1045.3 346.107 1059.16 311 1088.47 291.254C1111.41 275.787 1142.14 260.28 1179.06 253.747H1179.05H1179.08C1179.99 253.587 1180.89 253.427 1181.81 253.28C1189.16 251.76 1208.96 245.814 1212.52 225.56C1212.52 225.56 1213.77 243.174 1237.21 251.667H1237.17C1273.91 255.44 1314.65 269.16 1358.43 298.667C1380.01 313.214 1390.55 338.854 1385.13 363.774L1380.45 385.36" fill="#4F389B"/>
<path d="M1385.68 360.92C1385.68 360.92 1427.37 366.12 1404.73 404.934C1379.95 447.44 1375.61 446.267 1357.63 453.227C1357.63 453.227 1377.85 404.04 1385.68 360.92Z" fill="#FBD4EC"/>
<path d="M1050.92 360.92C1050.92 360.92 1008.22 366.12 1030.86 404.934C1055.65 447.44 1059.98 446.267 1077.96 453.227C1077.96 453.227 1052.96 400.187 1050.92 360.92" fill="#FBD4EC"/>
<path d="M0.882324 2761.07C19.2011 2797.08 50.6347 2835.35 71.3161 2867.2C95.7707 2904.85 119.425 2943.03 144.479 2980.29C144.479 2980.29 274.101 2947.39 496.708 2880.44C934.621 2748.72 1867.8 2308.44 1930.36 1517.77C1936.96 1434.4 1902.73 1356.87 1842.13 1294.61C1842.13 1294.61 1778.88 1237.12 1742.75 1208.97C1742.75 1208.97 1712.01 1432.03 1689.01 1524.36C1673.67 1585.99 1658.43 1647.43 1636.08 1706.89C1627.65 1729.33 1618.41 1751.37 1608.43 1773.04C1526.89 1949.92 1395.53 2100.95 1247.28 2225.95C1125.31 2328.79 990.561 2415.92 850.547 2492.04C743.581 2550.19 629.363 2616.2 510.415 2643.44C422.108 2663.67 332.888 2682.15 242.996 2693.2C163.873 2702.92 69.2854 2717.28 0.882324 2761.07Z" fill="#F25DB0"/>
<path d="M1742.75 1208.97C1781.95 1241.89 1840.99 1293.28 1840.99 1293.28C1897.61 1346.89 1937.69 1435.03 1932.15 1520.23C1927.51 1591.67 1914.81 1680.29 1883.24 1757.07C1883.24 1757.07 1882.13 1466.92 1729.79 1305.84L1742.75 1208.97" fill="#EF2D93"/>
<path d="M144.479 2980.29C119.425 2943.03 95.7706 2904.85 71.3159 2867.2C95.7706 2904.85 119.425 2943.03 144.479 2980.29C144.479 2980.29 274.101 2947.39 496.708 2880.44C274.101 2947.39 144.479 2980.29 144.479 2980.29ZM497.137 2880.31C497.191 2880.29 497.181 2880.29 497.235 2880.28C497.2 2880.29 497.172 2880.29 497.137 2880.31ZM243.955 2693.08C244.115 2693.05 244.277 2693.04 244.437 2693.01C244.272 2693.04 244.119 2693.05 243.955 2693.08ZM244.905 2692.96C245.097 2692.93 245.3 2692.91 245.493 2692.89C245.295 2692.91 245.103 2692.93 244.905 2692.96ZM245.839 2692.84C246.055 2692.81 246.271 2692.79 246.487 2692.76C246.273 2692.79 246.053 2692.81 245.839 2692.84ZM246.741 2692.73C322.371 2683.27 397.519 2668.57 472.047 2652.08C472.049 2652.08 472.051 2652.08 472.052 2652.08C397.524 2668.57 322.369 2683.27 246.741 2692.73" fill="#FBD1EA"/>
<path d="M144.479 2980.29C119.425 2943.03 95.7707 2904.85 71.3161 2867.2C50.8361 2835.67 19.8141 2797.83 1.42246 2762.12C1.24126 2761.77 1.06099 2761.41 0.882324 2761.07C69.2854 2717.28 163.873 2702.92 242.996 2693.2C243.316 2693.16 243.636 2693.12 243.955 2693.08C244.119 2693.05 244.272 2693.04 244.437 2693.01C244.596 2693 244.747 2692.99 244.905 2692.96C245.103 2692.93 245.295 2692.91 245.493 2692.89C245.609 2692.88 245.721 2692.87 245.839 2692.84C246.053 2692.81 246.273 2692.79 246.487 2692.76C246.572 2692.76 246.657 2692.75 246.741 2692.73C322.369 2683.27 397.524 2668.57 472.052 2652.08C499.633 2689.05 563.52 2761.05 786.437 2773.45C678.673 2820.05 579.287 2855.57 497.235 2880.28C497.181 2880.29 497.191 2880.29 497.137 2880.31C496.996 2880.35 496.849 2880.4 496.708 2880.44C274.101 2947.39 144.479 2980.29 144.479 2980.29Z" fill="#F58AC8"/>
<path d="M0.882324 2761.07C0.882324 2761.07 21.5552 2805.33 144.479 2980.29L215.057 2961.52C215.057 2961.52 90.5921 2911.41 12.3703 2753.19L0.882324 2761.07" fill="#FCD6EC"/>
</svg>
