<svg width="623" height="113" viewBox="0 0 623 113" fill="none" xmlns="http://www.w3.org/2000/svg">
<path d="M78.6169 64.1094H61.0387V53.9844H78.6169C81.4919 53.9844 83.82 53.5156 85.6012 52.5781C87.4137 51.6094 88.7419 50.2969 89.5856 48.6406C90.4294 46.9531 90.8512 45.0312 90.8512 42.875C90.8512 40.7812 90.4294 38.8281 89.5856 37.0156C88.7419 35.2031 87.4137 33.7344 85.6012 32.6094C83.82 31.4844 81.4919 30.9219 78.6169 30.9219H65.2575V89H52.3669V20.75H78.6169C83.9294 20.75 88.4606 21.7031 92.2106 23.6094C95.9919 25.4844 98.8669 28.0938 100.836 31.4375C102.836 34.75 103.836 38.5312 103.836 42.7812C103.836 47.1875 102.836 50.9844 100.836 54.1719C98.8669 57.3594 95.9919 59.8125 92.2106 61.5312C88.4606 63.25 83.9294 64.1094 78.6169 64.1094ZM129.238 48.6406V89H116.863V38.2812H128.582L129.238 48.6406ZM144.66 37.9531L144.472 49.4844C143.785 49.3594 143.004 49.2656 142.129 49.2031C141.285 49.1406 140.488 49.1094 139.738 49.1094C137.832 49.1094 136.16 49.375 134.722 49.9062C133.285 50.4062 132.082 51.1406 131.113 52.1094C130.176 53.0781 129.457 54.2656 128.957 55.6719C128.457 57.0469 128.176 58.6094 128.113 60.3594L125.441 60.0312C125.441 56.8125 125.769 53.8281 126.426 51.0781C127.082 48.3281 128.035 45.9219 129.285 43.8594C130.535 41.7969 132.097 40.2031 133.972 39.0781C135.879 37.9219 138.066 37.3438 140.535 37.3438C141.222 37.3438 141.957 37.4062 142.738 37.5312C143.551 37.625 144.191 37.7656 144.66 37.9531ZM177.141 89.9375C173.297 89.9375 169.844 89.3125 166.781 88.0625C163.719 86.8125 161.109 85.0781 158.953 82.8594C156.828 80.6094 155.188 78 154.031 75.0312C152.906 72.0312 152.344 68.8125 152.344 65.375V63.5C152.344 59.5938 152.906 56.0469 154.031 52.8594C155.156 49.6406 156.75 46.875 158.812 44.5625C160.875 42.25 163.344 40.4688 166.219 39.2188C169.094 37.9688 172.266 37.3438 175.734 37.3438C179.328 37.3438 182.5 37.9531 185.25 39.1719C188 40.3594 190.297 42.0469 192.141 44.2344C193.984 46.4219 195.375 49.0469 196.312 52.1094C197.25 55.1406 197.719 58.5 197.719 62.1875V67.3906H157.969V58.8594H185.531V57.9219C185.469 55.9531 185.094 54.1562 184.406 52.5312C183.719 50.875 182.656 49.5625 181.219 48.5938C179.781 47.5938 177.922 47.0938 175.641 47.0938C173.797 47.0938 172.188 47.5 170.812 48.3125C169.469 49.0938 168.344 50.2188 167.438 51.6875C166.562 53.125 165.906 54.8438 165.469 56.8438C165.031 58.8438 164.812 61.0625 164.812 63.5V65.375C164.812 67.5 165.094 69.4688 165.656 71.2812C166.25 73.0938 167.109 74.6719 168.234 76.0156C169.391 77.3281 170.766 78.3594 172.359 79.1094C173.984 79.8281 175.828 80.1875 177.891 80.1875C180.484 80.1875 182.828 79.6875 184.922 78.6875C187.047 77.6562 188.891 76.1406 190.453 74.1406L196.688 80.6094C195.625 82.1719 194.188 83.6719 192.375 85.1094C190.594 86.5469 188.438 87.7188 185.906 88.625C183.375 89.5 180.453 89.9375 177.141 89.9375ZM240.277 78.2188V17H252.746V89H241.496L240.277 78.2188ZM207.699 64.25V63.2656C207.699 59.3906 208.137 55.875 209.012 52.7188C209.918 49.5312 211.231 46.7969 212.949 44.5156C214.668 42.2344 216.746 40.4688 219.184 39.2188C221.652 37.9688 224.449 37.3438 227.574 37.3438C230.606 37.3438 233.246 37.9531 235.496 39.1719C237.777 40.3906 239.715 42.125 241.309 44.375C242.934 46.625 244.231 49.2969 245.199 52.3906C246.168 55.4531 246.871 58.8281 247.309 62.5156V65.1875C246.871 68.7812 246.168 72.0781 245.199 75.0781C244.231 78.0781 242.934 80.7031 241.309 82.9531C239.715 85.1719 237.777 86.8906 235.496 88.1094C233.215 89.3281 230.543 89.9375 227.481 89.9375C224.387 89.9375 221.606 89.2969 219.137 88.0156C216.699 86.7344 214.621 84.9375 212.902 82.625C211.215 80.3125 209.918 77.5938 209.012 74.4688C208.137 71.3438 207.699 67.9375 207.699 64.25ZM220.121 63.2656V64.25C220.121 66.4375 220.309 68.4844 220.684 70.3906C221.059 72.2969 221.668 73.9844 222.512 75.4531C223.356 76.8906 224.434 78.0156 225.746 78.8281C227.09 79.6406 228.715 80.0469 230.621 80.0469C233.059 80.0469 235.059 79.5156 236.621 78.4531C238.215 77.3594 239.449 75.875 240.324 74C241.199 72.0938 241.762 69.9531 242.012 67.5781V60.2188C241.887 58.3438 241.559 56.6094 241.027 55.0156C240.527 53.4219 239.809 52.0469 238.871 50.8906C237.965 49.7344 236.84 48.8281 235.496 48.1719C234.152 47.5156 232.559 47.1875 230.715 47.1875C228.809 47.1875 227.184 47.6094 225.84 48.4531C224.496 49.2656 223.402 50.4062 222.559 51.875C221.715 53.3438 221.09 55.0469 220.684 56.9844C220.309 58.9219 220.121 61.0156 220.121 63.2656ZM280.914 38.2812V89H268.492V38.2812H280.914ZM267.649 25.0156C267.649 23.1719 268.274 21.6406 269.524 20.4219C270.805 19.2031 272.524 18.5938 274.68 18.5938C276.836 18.5938 278.539 19.2031 279.789 20.4219C281.071 21.6406 281.711 23.1719 281.711 25.0156C281.711 26.8281 281.071 28.3438 279.789 29.5625C278.539 30.7812 276.836 31.3906 274.68 31.3906C272.524 31.3906 270.805 30.7812 269.524 29.5625C268.274 28.3438 267.649 26.8281 267.649 25.0156Z" fill="#001E6C"/>
<path d="M315.148 80.1875C316.898 80.1875 318.461 79.8438 319.836 79.1562C321.211 78.4688 322.304 77.5 323.117 76.25C323.961 75 324.414 73.5469 324.476 71.8906H336.148C336.086 75.3281 335.117 78.4062 333.242 81.125C331.367 83.8438 328.867 86 325.742 87.5938C322.648 89.1562 319.179 89.9375 315.336 89.9375C311.429 89.9375 308.023 89.2812 305.117 87.9688C302.211 86.6562 299.789 84.8281 297.851 82.4844C295.945 80.1406 294.508 77.4219 293.539 74.3281C292.601 71.2344 292.133 67.9219 292.133 64.3906V62.8906C292.133 59.3594 292.601 56.0469 293.539 52.9531C294.508 49.8594 295.945 47.1406 297.851 44.7969C299.789 42.4531 302.211 40.625 305.117 39.3125C308.023 38 311.414 37.3438 315.289 37.3438C319.383 37.3438 322.976 38.1406 326.07 39.7344C329.195 41.3281 331.633 43.5781 333.383 46.4844C335.164 49.3906 336.086 52.8125 336.148 56.75H324.476C324.414 54.9375 324.008 53.3125 323.258 51.875C322.508 50.4375 321.445 49.2812 320.07 48.4062C318.695 47.5312 317.023 47.0938 315.054 47.0938C312.961 47.0938 311.211 47.5312 309.804 48.4062C308.429 49.2812 307.351 50.4844 306.57 52.0156C305.82 53.5156 305.289 55.2031 304.976 57.0781C304.695 58.9219 304.554 60.8594 304.554 62.8906V64.3906C304.554 66.4531 304.695 68.4219 304.976 70.2969C305.289 72.1719 305.82 73.8594 306.57 75.3594C307.351 76.8281 308.429 78 309.804 78.875C311.211 79.75 312.992 80.1875 315.148 80.1875ZM360.379 17V89H347.957V17H360.379ZM358.41 61.8125H354.754C354.754 58.2812 355.223 55.0312 356.16 52.0625C357.098 49.0938 358.426 46.5156 360.144 44.3281C361.863 42.1094 363.91 40.3906 366.285 39.1719C368.691 37.9531 371.348 37.3438 374.254 37.3438C376.754 37.3438 379.019 37.7031 381.051 38.4219C383.113 39.1094 384.879 40.2188 386.348 41.75C387.816 43.2812 388.941 45.2812 389.723 47.75C390.535 50.1875 390.941 53.1562 390.941 56.6562V89H378.473V56.5625C378.473 54.2188 378.129 52.375 377.441 51.0312C376.754 49.6562 375.769 48.6719 374.488 48.0781C373.238 47.4844 371.691 47.1875 369.848 47.1875C367.848 47.1875 366.129 47.5781 364.691 48.3594C363.254 49.1094 362.066 50.1562 361.129 51.5C360.223 52.8438 359.535 54.3906 359.066 56.1406C358.629 57.8906 358.41 59.7812 358.41 61.8125ZM428.484 89.9375C424.641 89.9375 421.188 89.3125 418.125 88.0625C415.062 86.8125 412.453 85.0781 410.297 82.8594C408.172 80.6094 406.531 78 405.375 75.0312C404.25 72.0312 403.688 68.8125 403.688 65.375V63.5C403.688 59.5938 404.25 56.0469 405.375 52.8594C406.5 49.6406 408.094 46.875 410.156 44.5625C412.219 42.25 414.688 40.4688 417.562 39.2188C420.438 37.9688 423.609 37.3438 427.078 37.3438C430.672 37.3438 433.844 37.9531 436.594 39.1719C439.344 40.3594 441.641 42.0469 443.484 44.2344C445.328 46.4219 446.719 49.0469 447.656 52.1094C448.594 55.1406 449.062 58.5 449.062 62.1875V67.3906H409.312V58.8594H436.875V57.9219C436.812 55.9531 436.438 54.1562 435.75 52.5312C435.062 50.875 434 49.5625 432.562 48.5938C431.125 47.5938 429.266 47.0938 426.984 47.0938C425.141 47.0938 423.531 47.5 422.156 48.3125C420.812 49.0938 419.688 50.2188 418.781 51.6875C417.906 53.125 417.25 54.8438 416.812 56.8438C416.375 58.8438 416.156 61.0625 416.156 63.5V65.375C416.156 67.5 416.438 69.4688 417 71.2812C417.594 73.0938 418.453 74.6719 419.578 76.0156C420.734 77.3281 422.109 78.3594 423.703 79.1094C425.328 79.8281 427.172 80.1875 429.234 80.1875C431.828 80.1875 434.172 79.6875 436.266 78.6875C438.391 77.6562 440.234 76.1406 441.797 74.1406L448.031 80.6094C446.969 82.1719 445.531 83.6719 443.719 85.1094C441.938 86.5469 439.781 87.7188 437.25 88.625C434.719 89.5 431.797 89.9375 428.484 89.9375ZM482.012 80.1875C483.762 80.1875 485.324 79.8438 486.699 79.1562C488.074 78.4688 489.168 77.5 489.981 76.25C490.824 75 491.278 73.5469 491.34 71.8906H503.012C502.949 75.3281 501.981 78.4062 500.106 81.125C498.231 83.8438 495.731 86 492.606 87.5938C489.512 89.1562 486.043 89.9375 482.199 89.9375C478.293 89.9375 474.887 89.2812 471.981 87.9688C469.074 86.6562 466.653 84.8281 464.715 82.4844C462.809 80.1406 461.371 77.4219 460.403 74.3281C459.465 71.2344 458.996 67.9219 458.996 64.3906V62.8906C458.996 59.3594 459.465 56.0469 460.403 52.9531C461.371 49.8594 462.809 47.1406 464.715 44.7969C466.653 42.4531 469.074 40.625 471.981 39.3125C474.887 38 478.278 37.3438 482.153 37.3438C486.246 37.3438 489.84 38.1406 492.934 39.7344C496.059 41.3281 498.496 43.5781 500.246 46.4844C502.028 49.3906 502.949 52.8125 503.012 56.75H491.34C491.278 54.9375 490.871 53.3125 490.121 51.875C489.371 50.4375 488.309 49.2812 486.934 48.4062C485.559 47.5312 483.887 47.0938 481.918 47.0938C479.824 47.0938 478.074 47.5312 476.668 48.4062C475.293 49.2812 474.215 50.4844 473.434 52.0156C472.684 53.5156 472.153 55.2031 471.84 57.0781C471.559 58.9219 471.418 60.8594 471.418 62.8906V64.3906C471.418 66.4531 471.559 68.4219 471.84 70.2969C472.153 72.1719 472.684 73.8594 473.434 75.3594C474.215 76.8281 475.293 78 476.668 78.875C478.074 79.75 479.856 80.1875 482.012 80.1875ZM527.477 16.9531V89H515.102V16.9531H527.477ZM559.258 38.2812L537.18 63.0781L525.227 75.2188L521.289 65.6094L530.524 53.9844L544.305 38.2812H559.258ZM546.602 89L530.899 65.375L539.149 57.3594L560.946 89H546.602Z" fill="#FF7070"/>
</svg>
